<mxfile host="65bd71144e" modified="2020-11-04T15:34:21.730Z" agent="5.0 (Windows NT 10.0; Win64; x64) AppleWebKit/537.36 (KHTML, like Gecko) Code/1.50.1 Chrome/83.0.4103.122 Electron/9.2.1 Safari/537.36" etag="_3zLu07vAN2_pyXM79N7" version="13.6.5">
    <diagram id="dBRtx-TbVDWdsvKZ1wc_" name="Page-1">
        <mxGraphModel dx="2299" dy="709" grid="1" gridSize="10" guides="1" tooltips="1" connect="1" arrows="1" fold="1" page="1" pageScale="1" pageWidth="850" pageHeight="1100" background="none" math="0" shadow="0">
            <root>
                <mxCell id="0"/>
                <mxCell id="1" parent="0"/>
                <mxCell id="10" value="" style="group" parent="1" connectable="0" vertex="1">
                    <mxGeometry x="-350" y="40" width="215" height="420" as="geometry"/>
                </mxCell>
                <mxCell id="kgXZ0zoaN98ubbGLQl3t-60" value="" style="rounded=0;whiteSpace=wrap;html=1;fillColor=none;" parent="10" vertex="1">
                    <mxGeometry width="215" height="420" as="geometry"/>
                </mxCell>
                <mxCell id="2" value="«SubSystem»" style="text;html=1;strokeColor=none;fillColor=none;align=center;verticalAlign=middle;whiteSpace=wrap;rounded=0;" parent="10" vertex="1">
                    <mxGeometry x="20" y="10" width="40" height="20" as="geometry"/>
                </mxCell>
                <mxCell id="3" value="Ecommerce" style="text;html=1;strokeColor=none;fillColor=none;align=center;verticalAlign=middle;whiteSpace=wrap;rounded=0;" parent="10" vertex="1">
                    <mxGeometry x="20" y="30" width="40" height="20" as="geometry"/>
                </mxCell>
                <mxCell id="6" value="Search" style="ellipse;whiteSpace=wrap;html=1;fillColor=none;" parent="10" vertex="1">
                    <mxGeometry x="62.5" y="140" width="90" height="60" as="geometry"/>
                </mxCell>
                <mxCell id="7" value="Add to Cart" style="ellipse;whiteSpace=wrap;html=1;fillColor=none;" parent="10" vertex="1">
                    <mxGeometry x="62.5" y="50" width="90" height="60" as="geometry"/>
                </mxCell>
                <mxCell id="8" value="Buy" style="ellipse;whiteSpace=wrap;html=1;fillColor=none;" parent="10" vertex="1">
                    <mxGeometry x="62.5" y="230" width="90" height="60" as="geometry"/>
                </mxCell>
                <mxCell id="9" value="Notifications" style="ellipse;whiteSpace=wrap;html=1;fillColor=none;" parent="10" vertex="1">
                    <mxGeometry x="62.5" y="320" width="90" height="60" as="geometry"/>
                </mxCell>
                <mxCell id="kgXZ0zoaN98ubbGLQl3t-65" value="" style="endArrow=none;html=1;entryX=0;entryY=0.5;entryDx=0;entryDy=0;" parent="1" target="6" edge="1">
                    <mxGeometry width="50" height="50" relative="1" as="geometry">
                        <mxPoint x="-670" y="380" as="sourcePoint"/>
                        <mxPoint x="-390" y="160" as="targetPoint"/>
                    </mxGeometry>
                </mxCell>
                <mxCell id="20" value="" style="endArrow=none;html=1;entryX=0.053;entryY=0.722;entryDx=0;entryDy=0;exitX=1;exitY=0.3333333333333333;exitDx=0;exitDy=0;exitPerimeter=0;entryPerimeter=0;" parent="1" source="jjboZwCjy1TyvQqFzcBL-4" target="7" edge="1">
                    <mxGeometry width="50" height="50" relative="1" as="geometry">
                        <mxPoint x="-660" y="390" as="sourcePoint"/>
                        <mxPoint x="-277.5" y="130" as="targetPoint"/>
                    </mxGeometry>
                </mxCell>
                <mxCell id="21" value="" style="endArrow=none;html=1;entryX=0;entryY=0.5;entryDx=0;entryDy=0;" parent="1" target="8" edge="1">
                    <mxGeometry width="50" height="50" relative="1" as="geometry">
                        <mxPoint x="-670" y="380" as="sourcePoint"/>
                        <mxPoint x="-277.5" y="220" as="targetPoint"/>
                    </mxGeometry>
                </mxCell>
                <mxCell id="22" value="" style="endArrow=none;html=1;entryX=0;entryY=0.5;entryDx=0;entryDy=0;exitX=1;exitY=0.3333333333333333;exitDx=0;exitDy=0;exitPerimeter=0;" parent="1" source="jjboZwCjy1TyvQqFzcBL-4" target="9" edge="1">
                    <mxGeometry width="50" height="50" relative="1" as="geometry">
                        <mxPoint x="-660" y="390" as="sourcePoint"/>
                        <mxPoint x="-277.5" y="310" as="targetPoint"/>
                    </mxGeometry>
                </mxCell>
                <mxCell id="kgXZ0zoaN98ubbGLQl3t-66" value="" style="endArrow=none;html=1;entryX=0;entryY=0.5;entryDx=0;entryDy=0;exitX=1;exitY=0.3333333333333333;exitDx=0;exitDy=0;exitPerimeter=0;" parent="1" target="16" edge="1">
                    <mxGeometry width="50" height="50" relative="1" as="geometry">
                        <mxPoint x="-650" y="700" as="sourcePoint"/>
                        <mxPoint x="-257.5" y="450" as="targetPoint"/>
                    </mxGeometry>
                </mxCell>
                <mxCell id="kgXZ0zoaN98ubbGLQl3t-67" value="" style="endArrow=none;html=1;entryX=0;entryY=0.5;entryDx=0;entryDy=0;exitX=1;exitY=0.3333333333333333;exitDx=0;exitDy=0;exitPerimeter=0;" parent="1" target="15" edge="1">
                    <mxGeometry width="50" height="50" relative="1" as="geometry">
                        <mxPoint x="-650" y="700" as="sourcePoint"/>
                        <mxPoint x="-287.5" y="600" as="targetPoint"/>
                    </mxGeometry>
                </mxCell>
                <mxCell id="kgXZ0zoaN98ubbGLQl3t-68" value="" style="endArrow=none;html=1;entryX=0;entryY=0.5;entryDx=0;entryDy=0;exitX=1;exitY=0.3333333333333333;exitDx=0;exitDy=0;exitPerimeter=0;" parent="1" target="17" edge="1">
                    <mxGeometry width="50" height="50" relative="1" as="geometry">
                        <mxPoint x="-650" y="700" as="sourcePoint"/>
                        <mxPoint x="-287.5" y="600" as="targetPoint"/>
                    </mxGeometry>
                </mxCell>
                <mxCell id="kgXZ0zoaN98ubbGLQl3t-69" value="" style="endArrow=none;html=1;entryX=0;entryY=0.5;entryDx=0;entryDy=0;" parent="1" target="18" edge="1">
                    <mxGeometry width="50" height="50" relative="1" as="geometry">
                        <mxPoint x="-650" y="700" as="sourcePoint"/>
                        <mxPoint x="-257.5" y="630" as="targetPoint"/>
                    </mxGeometry>
                </mxCell>
                <mxCell id="27" value="" style="endArrow=none;html=1;entryX=0;entryY=0.5;entryDx=0;entryDy=0;" parent="1" target="9" edge="1">
                    <mxGeometry width="50" height="50" relative="1" as="geometry">
                        <mxPoint x="-650" y="700" as="sourcePoint"/>
                        <mxPoint x="-297.5" y="530" as="targetPoint"/>
                    </mxGeometry>
                </mxCell>
                <mxCell id="kgXZ0zoaN98ubbGLQl3t-70" value="" style="endArrow=none;html=1;entryX=0.048;entryY=0.726;entryDx=0;entryDy=0;entryPerimeter=0;" parent="1" target="7" edge="1">
                    <mxGeometry width="50" height="50" relative="1" as="geometry">
                        <mxPoint x="-650" y="700" as="sourcePoint"/>
                        <mxPoint x="-287.5" y="130" as="targetPoint"/>
                    </mxGeometry>
                </mxCell>
                <mxCell id="28" value="" style="endArrow=none;html=1;entryX=0;entryY=0.5;entryDx=0;entryDy=0;" parent="1" target="8" edge="1">
                    <mxGeometry width="50" height="50" relative="1" as="geometry">
                        <mxPoint x="-650" y="700" as="sourcePoint"/>
                        <mxPoint x="-277.5" y="400" as="targetPoint"/>
                    </mxGeometry>
                </mxCell>
                <mxCell id="kgXZ0zoaN98ubbGLQl3t-71" value="" style="endArrow=none;html=1;entryX=0;entryY=0.5;entryDx=0;entryDy=0;" parent="1" target="6" edge="1">
                    <mxGeometry width="50" height="50" relative="1" as="geometry">
                        <mxPoint x="-650" y="700" as="sourcePoint"/>
                        <mxPoint x="-273.18000000000006" y="143.55999999999983" as="targetPoint"/>
                    </mxGeometry>
                </mxCell>
                <mxCell id="jjboZwCjy1TyvQqFzcBL-1" value="People" style="shape=umlActor;verticalLabelPosition=bottom;verticalAlign=top;html=1;outlineConnect=0;" parent="1" vertex="1">
                    <mxGeometry x="-830" y="520" width="30" height="60" as="geometry"/>
                </mxCell>
                <mxCell id="jjboZwCjy1TyvQqFzcBL-2" value="Employee" style="shape=umlActor;verticalLabelPosition=bottom;verticalAlign=top;html=1;outlineConnect=0;" parent="1" vertex="1">
                    <mxGeometry x="-680" y="680" width="30" height="60" as="geometry"/>
                </mxCell>
                <mxCell id="jjboZwCjy1TyvQqFzcBL-4" value="Customer" style="shape=umlActor;verticalLabelPosition=bottom;verticalAlign=top;html=1;outlineConnect=0;" parent="1" vertex="1">
                    <mxGeometry x="-700" y="360" width="30" height="60" as="geometry"/>
                </mxCell>
                <mxCell id="kgXZ0zoaN98ubbGLQl3t-62" value="" style="endArrow=classic;html=1;exitX=0;exitY=0.3333333333333333;exitDx=0;exitDy=0;exitPerimeter=0;" parent="1" source="jjboZwCjy1TyvQqFzcBL-2" edge="1">
                    <mxGeometry width="50" height="50" relative="1" as="geometry">
                        <mxPoint x="-710" y="700" as="sourcePoint"/>
                        <mxPoint x="-800" y="560" as="targetPoint"/>
                    </mxGeometry>
                </mxCell>
                <mxCell id="kgXZ0zoaN98ubbGLQl3t-64" value="" style="endArrow=classic;html=1;exitX=0;exitY=0.3333333333333333;exitDx=0;exitDy=0;exitPerimeter=0;" parent="1" source="jjboZwCjy1TyvQqFzcBL-4" edge="1">
                    <mxGeometry width="50" height="50" relative="1" as="geometry">
                        <mxPoint x="-710" y="390" as="sourcePoint"/>
                        <mxPoint x="-800" y="530" as="targetPoint"/>
                    </mxGeometry>
                </mxCell>
                <mxCell id="35" value="" style="endArrow=none;html=1;entryX=1;entryY=1;entryDx=0;entryDy=0;exitX=0.5;exitY=0;exitDx=0;exitDy=0;exitPerimeter=0;entryPerimeter=0;" parent="1" source="jjboZwCjy1TyvQqFzcBL-4" target="44" edge="1">
                    <mxGeometry width="50" height="50" relative="1" as="geometry">
                        <mxPoint x="-660" y="390" as="sourcePoint"/>
                        <mxPoint x="-775" y="200" as="targetPoint"/>
                    </mxGeometry>
                </mxCell>
                <mxCell id="37" value="" style="endArrow=none;html=1;entryX=0.5;entryY=0;entryDx=0;entryDy=0;exitX=0;exitY=1;exitDx=0;exitDy=0;exitPerimeter=0;" parent="1" source="jjboZwCjy1TyvQqFzcBL-2" edge="1">
                    <mxGeometry width="50" height="50" relative="1" as="geometry">
                        <mxPoint x="-680" y="1100" as="sourcePoint"/>
                        <mxPoint x="-785" y="770" as="targetPoint"/>
                    </mxGeometry>
                </mxCell>
                <mxCell id="39" value="" style="endArrow=none;html=1;entryX=0.5;entryY=0;entryDx=0;entryDy=0;exitX=1;exitY=1;exitDx=0;exitDy=0;exitPerimeter=0;entryPerimeter=0;" edge="1" parent="1" source="jjboZwCjy1TyvQqFzcBL-4" target="41">
                    <mxGeometry width="50" height="50" relative="1" as="geometry">
                        <mxPoint x="-680" y="440" as="sourcePoint"/>
                        <mxPoint x="-665" y="500" as="targetPoint"/>
                    </mxGeometry>
                </mxCell>
                <mxCell id="40" value="" style="endArrow=none;html=1;entryX=0.5;entryY=0;entryDx=0;entryDy=0;entryPerimeter=0;exitX=1;exitY=1;exitDx=0;exitDy=0;exitPerimeter=0;" edge="1" parent="1" source="41" target="jjboZwCjy1TyvQqFzcBL-2">
                    <mxGeometry width="50" height="50" relative="1" as="geometry">
                        <mxPoint x="-665" y="600" as="sourcePoint"/>
                        <mxPoint x="-670" y="660" as="targetPoint"/>
                    </mxGeometry>
                </mxCell>
                <mxCell id="41" value="«Service»&lt;br&gt;Authentication" style="shape=umlActor;verticalLabelPosition=bottom;verticalAlign=top;html=1;outlineConnect=0;" vertex="1" parent="1">
                    <mxGeometry x="-690" y="500" width="30" height="60" as="geometry"/>
                </mxCell>
                <mxCell id="43" value="«Service»&lt;br&gt;Register Employee" style="shape=umlActor;verticalLabelPosition=bottom;verticalAlign=top;html=1;outlineConnect=0;" vertex="1" parent="1">
                    <mxGeometry x="-800" y="770" width="30" height="60" as="geometry"/>
                </mxCell>
                <mxCell id="44" value="«Service»&lt;br&gt;Register Customer" style="shape=umlActor;verticalLabelPosition=bottom;verticalAlign=top;html=1;outlineConnect=0;" vertex="1" parent="1">
                    <mxGeometry x="-800" y="140" width="30" height="60" as="geometry"/>
                </mxCell>
                <mxCell id="12" value="" style="rounded=0;whiteSpace=wrap;html=1;fillColor=none;" parent="1" vertex="1">
                    <mxGeometry x="-350" y="490" width="215" height="420" as="geometry"/>
                </mxCell>
                <mxCell id="13" value="«SubSystem»" style="text;html=1;strokeColor=none;fillColor=none;align=center;verticalAlign=middle;whiteSpace=wrap;rounded=0;" parent="1" vertex="1">
                    <mxGeometry x="-320" y="500" width="40" height="20" as="geometry"/>
                </mxCell>
                <mxCell id="14" value="Storage" style="text;html=1;strokeColor=none;fillColor=none;align=center;verticalAlign=middle;whiteSpace=wrap;rounded=0;" parent="1" vertex="1">
                    <mxGeometry x="-320" y="520" width="40" height="20" as="geometry"/>
                </mxCell>
                <mxCell id="15" value="Restock wine" style="ellipse;whiteSpace=wrap;html=1;fillColor=none;" parent="1" vertex="1">
                    <mxGeometry x="-287.5" y="630" width="90" height="60" as="geometry"/>
                </mxCell>
                <mxCell id="16" value="Add wine" style="ellipse;whiteSpace=wrap;html=1;fillColor=none;" parent="1" vertex="1">
                    <mxGeometry x="-287.5" y="540" width="90" height="60" as="geometry"/>
                </mxCell>
                <mxCell id="17" value="Ship" style="ellipse;whiteSpace=wrap;html=1;fillColor=none;" parent="1" vertex="1">
                    <mxGeometry x="-287.5" y="720" width="90" height="60" as="geometry"/>
                </mxCell>
                <mxCell id="18" value="Withdraw wine" style="ellipse;whiteSpace=wrap;html=1;fillColor=none;" parent="1" vertex="1">
                    <mxGeometry x="-287.5" y="840" width="90" height="60" as="geometry"/>
                </mxCell>
                <mxCell id="45" value="" style="endArrow=none;dashed=1;html=1;exitX=0.5;exitY=1;exitDx=0;exitDy=0;entryX=0;entryY=0.5;entryDx=0;entryDy=0;" edge="1" parent="1" source="17" target="46">
                    <mxGeometry width="50" height="50" relative="1" as="geometry">
                        <mxPoint x="-280" y="850" as="sourcePoint"/>
                        <mxPoint x="-230" y="800" as="targetPoint"/>
                    </mxGeometry>
                </mxCell>
                <mxCell id="46" value="" style="triangle;whiteSpace=wrap;html=1;rotation=90;" vertex="1" parent="1">
                    <mxGeometry x="-250" y="820" width="15" height="20" as="geometry"/>
                </mxCell>
                <mxCell id="47" value="«Include»" style="text;html=1;strokeColor=none;fillColor=none;align=center;verticalAlign=middle;whiteSpace=wrap;rounded=0;" vertex="1" parent="1">
                    <mxGeometry x="-235" y="790" width="40" height="20" as="geometry"/>
                </mxCell>
            </root>
        </mxGraphModel>
    </diagram>
</mxfile>